/* XPM */
static char *ffb63a88db6f4ad5caaf5095d54792bcJTyMeDASVnDETLPw[] = {
/* columns rows colors chars-per-pixel */
"64 64 256 2 ",
"   c #0C0A04",
".  c #0B0C0C",
"X  c #080805",
"o  c #130B03",
"O  c #120E0B",
"+  c #150801",
"@  c #0C120C",
"#  c #091008",
"$  c #12120C",
"%  c #1B140C",
"&  c #171306",
"*  c #0A0E13",
"=  c #070B13",
"-  c #110F11",
";  c #0D1214",
":  c #121412",
">  c #1C1A14",
",  c #181915",
"<  c #27180A",
"1  c #241D16",
"2  c #331706",
"3  c #1D2319",
"4  c #292518",
"5  c #372819",
"6  c #322A16",
"7  c #2A2925",
"8  c #332C24",
"9  c #352C28",
"0  c #3D3324",
"q  c #36342B",
"w  c #3B3B33",
"e  c #373934",
"r  c #2D342A",
"t  c #1F2C22",
"y  c #4A2D1A",
"u  c #452A17",
"i  c #52341C",
"p  c #433323",
"a  c #433A2C",
"s  c #4C3C2D",
"d  c #493626",
"f  c #563A28",
"g  c #463C34",
"h  c #553E33",
"j  c #432F21",
"k  c #683B27",
"l  c #703C2F",
"z  c #471D0D",
"x  c #39433A",
"c  c #4B422E",
"v  c #59432D",
"b  c #4D4232",
"n  c #49473A",
"m  c #544333",
"M  c #554B3C",
"N  c #5B4B3B",
"B  c #5A4734",
"V  c #5B543D",
"C  c #66442B",
"Z  c #634C3C",
"A  c #6B4D3B",
"S  c #664834",
"D  c #724B35",
"F  c #754A38",
"G  c #67523C",
"H  c #74543C",
"J  c #79543B",
"K  c #764F2D",
"L  c #4A4B44",
"P  c #554C45",
"I  c #5B5244",
"U  c #55544B",
"Y  c #5A5649",
"T  c #5A5955",
"R  c #4D5250",
"E  c #664D41",
"W  c #635443",
"Q  c #6C5344",
"!  c #695A4A",
"~  c #745443",
"^  c #735C44",
"/  c #7B5B43",
"(  c #755B4C",
")  c #7C5C4B",
"_  c #795444",
"`  c #635D53",
"'  c #695C55",
"]  c #755C51",
"[  c #714D41",
"{  c #68614D",
"}  c #78634C",
"|  c #6D665B",
" . c #6D6A5C",
".. c #676356",
"X. c #736554",
"o. c #736B5D",
"O. c #7B6B5B",
"+. c #796755",
"@. c #77725D",
"#. c #6A6865",
"$. c #746D63",
"%. c #7A6D63",
"&. c #7C7365",
"*. c #7B756A",
"=. c #7D7A6B",
"-. c #767365",
";. c #737472",
":. c #5D625D",
">. c #3E4E41",
",. c #88563B",
"<. c #834C36",
"1. c #8B603C",
"2. c #845C4B",
"3. c #885947",
"4. c #965C47",
"5. c #865E50",
"6. c #895447",
"7. c #84634C",
"8. c #8B654B",
"9. c #97644B",
"0. c #8D6D5B",
"q. c #886854",
"w. c #936B54",
"e. c #9B6C5B",
"r. c #976956",
"t. c #88745C",
"y. c #94735C",
"u. c #9B745B",
"i. c #997559",
"p. c #A46A54",
"a. c #A76B57",
"s. c #A4735C",
"d. c #AA745C",
"f. c #A47A5C",
"g. c #AB7B5C",
"h. c #A67354",
"j. c #B37A5E",
"k. c #A1664C",
"l. c #837B6C",
"z. c #877767",
"x. c #947462",
"c. c #9A7562",
"v. c #9C7B64",
"b. c #967A68",
"n. c #867D73",
"m. c #937669",
"M. c #A47562",
"N. c #A37B64",
"B. c #AB7C63",
"V. c #A47D6A",
"C. c #AB7967",
"Z. c #B37C64",
"A. c #B67A68",
"S. c #A77E71",
"D. c #B57E72",
"F. c #A46E62",
"G. c #C27F6A",
"H. c #7D8172",
"J. c #88826D",
"K. c #998369",
"L. c #848272",
"P. c #8B8473",
"I. c #8B8A78",
"U. c #938C7A",
"Y. c #978876",
"T. c #97917D",
"R. c #8D907B",
"E. c #A48266",
"W. c #AC8264",
"Q. c #A4836B",
"!. c #AD836C",
"~. c #AC8A6E",
"^. c #A88A67",
"/. c #B3846C",
"(. c #BB846C",
"). c #B5896C",
"_. c #B98869",
"`. c #BC916E",
"'. c #AC8B73",
"]. c #A88774",
"[. c #BC8472",
"{. c #B48B73",
"}. c #BB8C74",
"|. c #BC8C7C",
" X c #B48775",
".X c #A99478",
"XX c #BC937B",
"oX c #B79477",
"OX c #B49973",
"+X c #C2856E",
"@X c #C38B6D",
"#X c #C38C73",
"$X c #CB8E75",
"%X c #C48D7A",
"&X c #C68875",
"*X c #C49374",
"=X c #CA9276",
"-X c #C4937C",
";X c #CB927B",
":X c #CC9B7C",
">X c #C69B7B",
",X c #D39C7C",
"<X c #D4957A",
"1X c #CC9072",
"2X c #D4A37E",
"3X c #978C83",
"4X c #9B9585",
"5X c #979588",
"6X c #A69987",
"7X c #BC9683",
"8X c #A49E92",
"9X c #B18F83",
"0X c #AAA38E",
"qX c #B8A689",
"wX c #ABA797",
"eX c #B8AB95",
"rX c #BDB39C",
"tX c #BAB6A4",
"yX c #B4ADA2",
"uX c #C98F82",
"iX c #C49482",
"pX c #CB9B83",
"aX c #C89884",
"sX c #D39B83",
"dX c #D79B86",
"fX c #DD9F90",
"gX c #C9A588",
"hX c #DCA483",
"jX c #D5A789",
"kX c #D9A793",
"lX c #C7B498",
"zX c #D7B697",
"xX c #CCAC92",
"cX c #E2A68A",
"vX c #E5AD94",
"bX c #C7BBA7",
"nX c #D7BDA7",
"mX c #C9BDB2",
"MX c #E4BBA7",
"NX c #CAC3AA",
"BX c #D6C4AA",
"VX c #CAC5B4",
"CX c #D6CCB9",
"ZX c #D8D2BC",
"AX c #CDD1B8",
"SX c #E5C4A9",
"DX c #E5CAB9",
"FX c #DEC19B",
"GX c #D9D8C4",
"HX c #D7CFC3",
"JX c #E8D4C4",
"KX c #E7E3CE",
"LX c #F0E9D9",
"PX c #FAF6E6",
"IX c #F5F7EB",
"UX c #DAE0CD",
/* pixels */
"x >.L n n L T T T ;.;.#.| U.Y.} K.~.u.y.0.~ N c n c n I +.x.S.D.[.%X#X*X#X*XoXy.X.| #.;.;.#.#.R L P ` | ....T T T L n L P T ' ' ",
"x x x n n L L w T :.T ` U O.Y..X7X7XE.c.V.y.0.! V V { @.K.'.|.iXuXsX=X=X@X*XpX'.+.' U ..#.T T ` P P P Y T T U U R L w 9 7 9 g P ",
"x x e q x L R R L L R ..P +.K..XzXxX~.N.!. X'.x.t.t.J.].oXXX-XpXsXjX,XhX,X:XjXoXb.rX3XT U #.#.` L U T T U P U U w g g g e 9 7 7 ",
"r e e w e e e e R R R L P 6XnXzXxXzX`.B./. X{.E.'.'.'.'.oX}.;X,XpX2X,XhX2X,XjX}.oXnX3X` I L P ..L U T T U n w q q q 9 9 q w q 9 ",
"r r r r e w x L x L L a h 9XgXaXxXzX>X_._./.}.).).).).`.*X=X,XhXjXjX:X2X,X,XhX}.v.7XO.s I P M ` n L U ..*.L.-...n n a 9 9 9 9 8 ",
"q 7 7 7 q q r r e e w a h v.C.pXzXFXgX>X*X(.=X;X#X#X*X,XhX2XhXhXjXzXjXhX2X2XhX_.M.aX+.p ! o.! P ..$.L.I.R.8XyXtXyX8Xn.P 9 8 q w ",
"7 7 q w q 4 3 4 x :.5XmXDXSXC.}.zXzXoX`.;X*XsXdXdX,X,XhXhXhXhXhXgXzXjX>X_.1X,X(. X].( ! o.W Y =.R.8X8Xn.....&.P.I.4X8X8X3X$.g % ",
"9 9 9 4 4 c H.tXLXIXPXLXLXJX(.pXzXqXi.E.-X-XsXdXvXdX<X,XhXhXhXjXlXlX.X8.K 9.=X#Xr.9Xm.X.o.| P.eX5X3X*.` M M M b I N M ! n.4Xn.' ",
"T g a | yXKXPXLXUXGXVXHXJXSXkXM.zX} C H ].kX%X;XkXsXfXdX#XhXvXgXqX.X} C ,.,.}.}.c.9X] I &.wXwX8X%.' M s s m s d j s d 5 d N X.U.",
"9 $.mXLXPXKXGXGXGXHXVXZXDXSXzX XxXK.^ v A v.iXkXuXuXdXfXsXjXpX^.^ B G i.gX`.-XXXv.JXbX3XwXVXwXo...P s d p u u u f A Q A B p d ! ",
"$.HXIXJXbXZXZXrXVXVXVXZXCXBXMXgXlXlX.Xq.S C _ 5.|.uXaXsXsX-XN.7.Z m q.Q.xXaX}. XS.LXPXHXVX4Xl.l.N s d v S C S D 8.u.Q.'.b.Q f B ",
"KXKXJXCXBXNXNXNXNXVXVXCXBXnXSXzXzXgXt.+.S y S 2.S.[.[.[.|.D.w./ v Q K.7.u.XX>XXXxXJXHXmXVX*.I ] p y f } x.v.E.{.{.{.XXgXgXQ.^ f ",
"LXGXZXZXCXBXbXNXbXmXVXCXmXbXBXnXBXgXy.t.} ^ x.Q.8.F.C.C.C.M.r.w.~ c.gXu.W.jXjX{.xXJXnXY.Y.! m d u d _ Q.XXXX>XjXgX:X:XpXgXgXv.S ",
"AXKXGXrXeXbXBXrXbXbXmXCXbXlXBXnXzXSXxXoXK.b.v.y.5.s.D.&XA.s.e.r.S.|.kX-XjXkX:XB.gXDXeX+.Z f S H _ 2.V.aXgX>X*X:X=X:X:X*X>XjXaXi.",
"UXAXVXBXBXlXxXlXbXbXbXVXbXrXbXlXzXzXjX^.t.t.t.w.r.C.uXkX%XZ.N.r.s.B.(.*XvX,X:XW.zXoX^ ( } 7.w.v.]. XiXpX-X@X@X1X_._.*X@X[.:XpXW.",
"NXNXNXrXeXeXlXlXlXbXbXVXbXrXbXlXSXjXjXoXE.i.8.f.e.M.dXvXpX#X}.d.d.[.=XhXvX:XjXW.aXu._ v.E.^.).}.XX7XiX}./.Z._.$X<X@X=X:X*X:X>XW.",
"tXbXbXrXqXqXeXlXeXnXlXlXlXlXzX>XgXSX>X:X_._.j._./.@X#X*XsXhXdXdX<X,XhXvXjXzXXXzX'.v.y.~.XX).(.sXaXoX{.!.Z.(.&X;X=X=X;X:X*X>XXX^.",
"bXrXeXeXeXrXeX0XrXlXeXlXzXlXxXqX>XSXgXgX=X1X@X+Xj.@X`.`.:XdXdXcXcXhXhXjXjXzXXXxXQ.'.E.f.).;X$X@X/.W.W.B.Z.(.%X;X;X;XsX:X>X>XoX^.",
"bXlXeX0X6X6X6X0X0X6X0XeXlXlXqXgX>XFXjXjX,X,X<X$X+X=X=X@X*X=X<XdXcX,X<XsXgXxX'.oXQ..XE.u.(.sX$Xj.d.f.g.B.Z.(.&X;XuX;XsXsX:XgX>XW.",
"bXeX6XK.z.z.J.U.T.T.0X.X6XlXqXqXgXzXjXjXdX<X<X<X=XdX,X=X#X+X&X<X<X1X#X*XpX-XE.E.Q.E.N.B.[.(.j.d.d.d.d.s.d.C.[.&X%X%XpXpXpXpX>X/.",
"lX].+.^ { { ! W z.U.0XJ.J.0X6XY..XgXzXjX<X<X$XG.$XdXdX=X$X+XG.$X+X$X=X;XpX/.V.v.c.c.c.C.(.a.k.a.a.a.p.p.d.A.|.%XiXiXiXiXiXsXpX[.",
".Xb.} } ^ G m b N @.P.o.{ &.+.W } ~.zX-X#X,X$Xp.dXcXdX;X$X+XA.G.A.$X;X-X-Xu.c.c.2.c.N.M.M.s.p.a.a.a.a.M.[.uXaXaXiX|.|.|.iXjXkXiX",
"v.v.K.t.} B m I b I I ` I g g s v H oX!.!.[.(.d.cXvXdX&X&X+XA.Z.j.#X-X}.{.7.y.y.~ x.v.r.e.C.B.B.A.Z.Z.[.XX7X'.Q.x.0.0.y.N.iXkXpX",
"^.K.K.x.+.G N I W M a ' Y 5 a N j u q.v.N.r.B.}.kXjX;X[.%X%X[.A.d.}.}.!.].) x.m.( 0.x.y.c.N.C.[.D.A.A. X|.].0.~ B f f S 2.!.aXiX",
"~.K.K.K.+.! X.X.I 8 8 I ' g 0 s p j d q.t.H 8.u.iXaX-X-X-X/.M.M.r.7.^..Xq.+.m.z.N z.q.) x.Q.'.!.[././. X0.Q v p N ! X.} x.q.'.7X",
"K.].].x.} X.O.X.b 6 1 a I I M N m 0 2 B ^ v C C J u.XXiX/.8.D D C H q.t.t.z.P.&.W X.m u y f ) v.!.M.c.x.~ d c V o.z.z.} ~ f q.'.",
"K..XY.O.+.O.! m 6 5 p s m m s d m p 4 0 c B Z v y J r.e.5.D C H / q.} ^ t.Y.P.*.M s 4 5 u 5 f v y.v.v.) Q X.+.X.X.z.K.x.q.S y.7X",
"K.Y.z.} X.! d 6 s m B B B v f p 5 s 0 4 6 V } ^ S D F F F D / x.].b.O.} z.U.L...b a s { +.G B d f A ( Z O.K.t.W m Z } t.v.7.^.gX",
"Y.K.+.{ W p 5 B z.^ v S } q.7.~ d s a < < a G } / 2.3.6.3.2.7.y.K.^ X.z.z.P.l.n a n P ! W m A S d 5 h A K.z.Q Q Q ~ / q.E.w.{.xX",
"T.@.{ W c 6 m K.t.^ A 7.x.v.u.y.] h 0 6 4 4 p ^ ~ 5.r.r.r.5.8.c.x.G } K.z.P.n.P I I g p j d Z Z h h +.Q b.m.+.q.x.Q.'.{.oXf.oXjX",
"l.! M M b m X.b.Q } y.E.E.f.f.N.S.' I a 6 4 5 ~ _ 6.6.6.6.5.e.].x.q.z.b.m.Y.Y.' *.%.h s E Q Q Q h ] ].E m.].m.x.c.'.XXXX>Xf.`.:X",
" .n a b V X.+.S } 0.N.!.).}._.!.].m.t.s < < 6 B 7._ l l 6.5.F.].( z.m.n.T.6Xn.' X.%.E E +.~ [ ) h ~ ].)  X Xv.S.V.'.!.B.`.W.:XjX",
"x r q n m s f S q.f.).`.`._._.).~.Q.x.G 6 < 6 p +.0.2.F r.|.S.q.O.J.U.U.6X3Xz.%.! ! ] ) _ ) 2._ f 8.M.C.w.!.V.N.|.!./.).W._.:XjX",
"t r q q 0 s H w.!./._._._._.*X>X`.^.K.^ 5 % 6 a m } 0.y.c.x.2.Q l.P.U.4X6XU.&.t.! E ~ ) 2.5.3.F k 8.s.!.r.f.N./.!././.N.f.`.jXgX",
"3 7 6 4 5 S w.!.)._._.@X#X*X*X@X`.).E.q.d & 6 M d B Q } ( A Q +.U.P.T.0X4Xn.z.z.] E A _ ) 2.F k k 3.B.}.e.4.6.8.e.e.s.B.).sXkXjX",
"4 4 < 6 m q.V./.).(.[.#X;X=X#X_.[./.N.0.m < 4 ` ! W m m N ! O.U.U.P.4X6XU.l.l.%.O.Q Z [ _ _ D k F 9.[.aX}.M.9.9.e.6.9.[.pXsXkXkX",
"1 < < h 0.'.|. X-X#X#X+X#X#X%X;X+X(.C.x.Z < 4 ' P.l.X.{ @.J.I.R.I.I.4X4XJ.L.P.O.%.( Q ] 5.) F D 6.r./.|.iXiXuX|.D.r.p.[.uXsXsXsX",
"< 2 f q.'.7XXX|.(.(.[.&X%X;X;X;X$X[.D.m.Q 1 1 Y n.I.I.J.I.R.I.I.I.T.4XU.J.P.P.%.+.Q ( x.m.0.5.3.2.e.|.7XaX|.|.D. XC.M.s.Z.pXfX%X",
"2 d 7.].XX'.C.s.3.4.r.C.}.-X-X}.%X%XS.m.] 1 > P $.L.J.J.L.L.L.R.I.T.U.L.P.P.l.&.X.E ( x.m.q.) H _ 0.7X7X|.5.3.6.e.e.r.4.r.%XsX}.",
"u H E.{.'.V.8.D C k C ,.s.}.-X-X%X|.S.m.X.8 > L *.=.=.=.L.H.H.I.I.U.L.J.U.l.o.&.o.I Z +.q._ S f u f 7.q._ z y D 6.3.6.3.9.B. X!.",
"C y.~.~.N.u.y.J J C 3.8.J f.gX/.{.v.7.h P 4 , L #.-.*.=.l.L.I.I.L.P.=.L.$.P.*...X.! m +.~ f u y 2 2 2 y u z y C F 3.D F 3.v.XXu.",
"/ u.E.~.^.y.H y f C D y.N.u. XaX!.H f s n 4 , L #.-.*.*.l.l.n.L.P.l.l.5X=.-.| &.' ' s ( Q u u u 2 5 y f f C F / 8.J J D / E.v./ ",
"i.W.^.~.E.7.C 2 y K.7.7.{.).XXXXw.y y W n 4 , x | $.&.&.l.l.n.l.o.&.&.=.-.=.| ` ..o.d E ] u f u d S A A / c.'.'.2.C 2.J J Q.y.H ",
"s.).).~.i.H S f H nXE./ E.XXgX!.J y Z n.n 4 , w ` | %.&.l.l.l.*.=.I.l.| | =.=.$.o.%.m s X.Z E d y ~ v.oXgXxXaX!.J D i.u.7.v.v.} ",
"s.). X).i.J / / c.gXw.e./.B.-X).J f } n.a > , e ` | %.%.&.*.*.-.o.&.*.-.=...` | | o.] j Z ( ~ B u k 2.N. X/.s.9.e.B.{.oXu.q.t.G ",
"d._.). XC.w.q.2.w.y.3.B.[.d.#XZ.9.J ) ] 0 > , w ..| o.o.o.o.$. .-.&. .Y =.=.-.$.| o.l.s u Z Q ( S k k F <.3.9.s.}.pX}.oXv.} ^ i ",
"a.(.(.}./.N.N.w.q.r.r.B.A.(.$XZ.r.4.q.Q h > O w T { ..{ { .. . .$.l...q T -.*.| | ..o.N < j Z ( _ 6.6.9.p.p.h.j.@X;X).s.w.H C v ",
"k.(.@X}./.!.}.!. X/.C.Z.Z.A.+X+X4.r.N.q.] <   g P U Y Y Y .. . .o.wXAXVXVXI.-.-.| I g P % < B A F J 3.9.9.p.p.h.(.#X*Xw.,.D i J ",
"1.W.*X*X*X}./.Z.A.(.+X+X+X+X+X+Xk.Z.u.q.O.< & 8 L n ..` ! o. .@.wXKXKXPXZX4X .$.$.T x 7 $ % 0 N / D k k k k F 3./.W.W.e.K i J oX",
"1.W.*X*X*X=X@X+XA.(.+X+XG.(.+X#Xp.j.B.y.t.< & 7 n T ` ..&.@.@.P.AXPXLXKXNX@.&. .T w 7 : . @ 4 g A D D D C D 3.u./.{.E.J i C i.gX",
",.g.`.*X=X:X=X$X+X+X+XA.Z.A.+X#Xa.d./.c.t.& & 4 P ` | Y o.&.l.AXGXrXbXrXbXO.X.P n 7 ; * ; @ > 8 B A _ _ _ 7.c.!.W.{.u.C k 8.{.XX",
"1.g.`.`.*X=X#X#X$X+XZ.a.a.d.(.#Xd.d./.V.t.+ & 4 n $.$.l.P.J.0XZXJ.8 X.J.0Xl.W P q , * ; : . $ 1 s B A ~ ) 0.c.u.N.u./ C 3.~.XX~.",
"8.g._.`.*X*X#X#X$XZ.p.4.k.d.(.#XZ.s.{.Q.} + & > 9 &.` n.l.P.ZXU.I.J.tXVX6X@.Y n 4 ; * ; : X   % 6 d N A A ( ) ) y.J k D u.{.oXoX",
"8.h./._.*X*X#X=X#XZ.p.9.p.Z.#X;XZ.s.'.].Z + % > 9 P l.&.l.bXwXn { VXJXJXz.X.%.w : * * ; ; .   & & 5 m m s f B A S f C r.{.!.^.{.",
"3.i.g./.#X#X#X=X@XZ.d.p.p.B.(.#Xd.s.V.K.p + % > 1 1 3X3X8XbXI 4 o.GXPXCX+.+.I > $ ; ; ; ; : $ & & 1 8 0 8 5 p h u f _ E.oX~.u.u.",
"3.r.s.B.(.[._.#XZ.j.d.r.9.9.s.B.p.e.c.b.6   & % > 1 8 $.&.0 4 8 { 0XPXrXW o.1 1 $ ; ; = . : $   :     % 4 4 5 5 f S / 0.E.~.u.8.",
"J w.f.s.g._._.Z.j.j.g.d.s.s.s.s.e.e.b.Q + &   > 1 1 % o % 1 1 4 M J.KXT.b s 4 o $ ; * * * . O $ @ # @ @ $ 5 a j d S ~ ) 0.x.q.A ",
"D 7.e.r.e.g.g.d.g.Z._./.B.M.s.e.e.c.0.j +   & % > 1 % o % , 1 7 n o.tXX.0 0 < o : ; * * * . O $ @ # @ @ O 1 8 0 s m B v Z Q A f ",
"f / i.e.i.f.g.h.h.g.Z.g.d.s.p.r.2.0.Q + +   4 $ > 1 % o O : > r n ..U.m p 0 % O - ; * * * * O $ @ # @ @ O $ 1 8 0 a p 5 5 u 5 2 ",
"y H y.u.u.B.W.g.9.9.,.<.<.,.6.6.[ ] j + &   4 @ , 1 %     @ > r n Y &.c b p + O - * * * * * O $ . * @ : : . O 1 1 5 5 1 < < < o ",
"2 v 7.y.u.f.W.f.9.9.,.<.<.,.6.6.[ E % + & & % : , > :   . . , 7 w I { a m 0 + O O * * * * * O O X ; ; , > : X % % 1 1 > % % & o ",
"2 y A q.i.f.f.g.g.h.9.4.4.4.4.6._ s   o   $ # , : > : . . . @ 3 q M Y 0 b 5 o $ O * * * * * O O X ; ; : 7 > . O O $ $ O $ $ $ $ ",
"2 5 f / y.u.f.g.h.h.k.4.4.4.4.6.A <   +   @   : : , : . . X X @ 4 c I 0 b 5 < $ - * * = = . O O . : . . 7 7 . . O O @ . @ @ $ @ ",
"2 2 y A 8.w.i.f.g.j.j.a.9.k.a.M.f   +   % $ @ # : , : . . X X X % 8 n 0 b 0 1   - * * = = . O O . , X X 7 r : X . O $ : : : # # "
};
