/* XPM */
static char *ed5f5d0bb5c14286ca1bd6d98fe50ec2zQnyUu5Q3Wlbty1T[] = {
/* columns rows colors chars-per-pixel */
"64 64 242 2 ",
"   c #030301",
".  c #0A0502",
"X  c #070903",
"o  c #0B0A04",
"O  c #09070A",
"+  c #0D0C0C",
"@  c #070708",
"#  c #120C02",
"$  c #130C09",
"%  c #0F100C",
"&  c #141204",
"*  c #1C1301",
"=  c #13120D",
"-  c #1C1A0D",
";  c #1B1807",
":  c #131312",
">  c #1C1C14",
",  c #1B1C1A",
"<  c #181815",
"1  c #100F11",
"2  c #221C04",
"3  c #231C0C",
"4  c #281905",
"5  c #341D00",
"6  c #231D12",
"7  c #231D1B",
"8  c #27100A",
"9  c #1E221C",
"0  c #1D2216",
"q  c #1E200B",
"w  c #25220B",
"e  c #2A240C",
"r  c #2A270C",
"t  c #3B2302",
"y  c #37250B",
"u  c #242314",
"i  c #2C2913",
"p  c #23241B",
"a  c #2B251C",
"s  c #2B2B1C",
"d  c #282717",
"f  c #332B14",
"g  c #332D1C",
"h  c #382A18",
"j  c #39321B",
"k  c #2E311D",
"l  c #1C1E23",
"z  c #261D24",
"x  c #1D2221",
"c  c #242523",
"v  c #262924",
"b  c #2C2C24",
"n  c #2B2C2A",
"m  c #282727",
"M  c #322D22",
"N  c #342B28",
"B  c #2D312C",
"V  c #2F3024",
"C  c #333324",
"Z  c #3A3324",
"A  c #34332C",
"S  c #3A3829",
"D  c #2E2F33",
"F  c #362E33",
"G  c #2E3133",
"H  c #343432",
"J  c #3C3B34",
"K  c #3B3C3A",
"L  c #373737",
"P  c #452A05",
"I  c #573609",
"U  c #48371B",
"Y  c #5A3B14",
"T  c #49300A",
"R  c #613F15",
"E  c #473B27",
"W  c #533E23",
"Q  c #443B37",
"!  c #3D413C",
"~  c #3F4032",
"^  c #57421B",
"/  c #674519",
"(  c #734F16",
")  c #4C432C",
"_  c #474326",
"`  c #53452C",
"'  c #554529",
"]  c #4C4433",
"[  c #43433B",
"{  c #4A4A3C",
"}  c #464436",
"|  c #534632",
" . c #544B33",
".. c #5A4B35",
"X. c #544C3C",
"o. c #5A4D3B",
"O. c #5B543C",
"+. c #5B5338",
"@. c #56512B",
"#. c #694B21",
"$. c #66543B",
"%. c #745633",
"&. c #75623B",
"*. c #3C3D42",
"=. c #423D41",
"-. c #3C4447",
";. c #434542",
":. c #4B4C44",
">. c #4C4D4B",
",. c #464A49",
"<. c #4F5148",
"1. c #545344",
"2. c #5A5443",
"3. c #54544B",
"4. c #5B5A49",
"5. c #535452",
"6. c #5B5B54",
"7. c #5A5B58",
"8. c #504E4C",
"9. c #625C4B",
"0. c #645944",
"q. c #635D53",
"w. c #725642",
"e. c #5E6158",
"r. c #6B644B",
"t. c #76644A",
"y. c #6C6453",
"u. c #62635C",
"i. c #6A6859",
"p. c #746A59",
"a. c #7A735A",
"s. c #5F6360",
"d. c #646663",
"f. c #6A6B65",
"g. c #6B6D6A",
"h. c #646869",
"j. c #6E716A",
"k. c #73746D",
"l. c #787668",
"z. c #6C6E72",
"x. c #6E7271",
"c. c #737573",
"v. c #7B7C73",
"b. c #787A79",
"n. c #756D62",
"m. c #8A682F",
"M. c #897357",
"N. c #837B6B",
"B. c #867A67",
"V. c #847E72",
"C. c #907D6E",
"Z. c #7D827A",
"A. c #8A846C",
"S. c #848275",
"D. c #83847C",
"F. c #8A897A",
"G. c #958A77",
"H. c #9B937C",
"J. c #92856E",
"K. c #A59278",
"L. c #A0855A",
"P. c #C0A57A",
"I. c #7B7A80",
"U. c #838583",
"Y. c #858A84",
"T. c #8C8C84",
"R. c #8B8D8B",
"E. c #878D89",
"W. c #8D918C",
"Q. c #8C9184",
"!. c #929485",
"~. c #93948B",
"^. c #9A9887",
"/. c #8C8E93",
"(. c #9B9B94",
"). c #969996",
"_. c #958C8B",
"`. c #A69A89",
"'. c #AA9E8E",
"]. c #9CA198",
"[. c #A8A18C",
"{. c #A3A395",
"}. c #A9A799",
"|. c #B3AB98",
" X c #B7AF99",
".X c #9EA4A2",
"XX c #A7AAA6",
"oX c #B2AEA5",
"OX c #ABB2AA",
"+X c #B5B4AB",
"@X c #B9B6AA",
"#X c #ADB3B2",
"$X c #B3B5B2",
"%X c #B4BAB4",
"&X c #BCBCB4",
"*X c #BBBDBB",
"=X c #B5BABC",
"-X c #A8ACB1",
";X c #C2BEB3",
":X c #C6BFB9",
">X c #CFBBAE",
",X c #CBB29E",
"<X c #BDC1BD",
"1X c #BEC1B4",
"2X c #C3C3B6",
"3X c #C3C3BC",
"4X c #C8C9BD",
"5X c #D3C6B3",
"6X c #B8BDC0",
"7X c #BEC3C3",
"8X c #BEC7C9",
"9X c #C2C6C4",
"0X c #C5C9C5",
"qX c #CACBC4",
"wX c #C2C6C9",
"eX c #C4CACC",
"rX c #CACCCB",
"tX c #CAC6C2",
"yX c #D2CBC7",
"uX c #CCD2CD",
"iX c #CAD0CA",
"pX c #D2D3CE",
"aX c #D8D5C8",
"sX c #C6CDD0",
"dX c #CBCED3",
"fX c #CBD2D4",
"gX c #CED6D9",
"hX c #CFD8D5",
"jX c #D3D5D3",
"kX c #D5DAD5",
"lX c #D3DADB",
"zX c #DADDDC",
"xX c #D6D7D6",
"cX c #E0DCCE",
"vX c #DBE1DD",
"bX c #E3E5DE",
"nX c #E1E0CC",
"mX c #D9DEE2",
"MX c #DDE3E4",
"NX c #E2E5E4",
"BX c #E7EBE9",
"VX c #EDF1EA",
/* pixels */
"I T P I I I I P I I / P / R I / / / m.m.( ( / ( R Y R Y Y Y T ^ %.P P ' T y U U W y U K.M.T $.t.M.B.K.M.K.J.K.G.`.5X|.2.y.4.j.@X",
"P I R Y I I I I R / / R Y Y #./ Y #.M.%.( %./ I / R W U U U T ^ $.T U $.' U W U T W U M.`.y y U ' w.t.W ' ' $.$.0.y.O.Z 2.6.i.k.",
"P P T P #.&.I I Y %./ Y Y / R I %.M.M.M.&.M.&.%.$.$.w.o.0.0.` $.$.E ` $.` E E h U U f |.a.2 j E 4 U U y y y y h y 2 f g Z S { S ",
"#.Y Y ^ L.P.%./ T Y Y P / T P w.,X|.>X,X5X5X,X>X5X>XyX:X:X;X`.'.2X X@X@X X X X[.^.^.'.^.^.h 3 # 4 4 2 4 y 4 * 4 4 4 g g w - V b ",
"t t P 5 / &.P t P 5 t t P 8 %.'.C.a.J.G.`.`.C.G._._._._.(._.k.l.}.{.{.{.{.}.|.}.@X}.2X}.T.yX1.- e r 2 * 4 e 4 r h f w i g g s V ",
"4 5 5 * 5 t 4 t 5 t 4 5 4 U '.$.4 * 4 # 2 j 4 8 ; $ : = > > & > o o o o o & & & = > o b A b (.} ; r j w e f j e r f ; e g C p s ",
"y y t 5 t P P T y U y y y J.J.# U r j r U @.U U ] E Q M g s w k C A V b A V b V c p p = < b v &XC * i w i 2 f * 2 i w i w d w d ",
"W W ' ..' U ' ' ..) W ` $.'.3 j r * j @.&.t.U U h f Z g g f r Z C C s d b s b S 7 > 7 o b b > u.!.d ; w j & f e e w 2 i * s s w ",
"W ' ' ) ) ' ` _ E ..E h |.2.e h * U _ _ &.&._ U U E h Z e r +.Z g g g g M M M M C u & ; p b a > !.u.& s 3 j w r e 2 2 3 u i u w ",
"` ` ` ` ` ` ` ) | E j p.G.3 Z 3 3 E j f ' ' U U h E Z E h g 0...h g k k C C C S M u - - 7 d a p } oXk p u ; r f r e 3 3 w w u u ",
"` ` ` ` ` ` ` )  .E E @XQ 6 N > 6 Z a 4 h j h h N Q Q Q Q Z 2.4.S Z Z g s d s g d u 3 - 3 6 a M - F.Q.& k w 2 i r e w w w w u u ",
"` ` ` ` ) ` ) ) | E N.!.# J 7 > 6 b a 6 a h a a a Q F Q F m Q ] Z C k d u 3 u u - - - ; ; > d M s V +X2.S ] f e e w w r i i w - ",
"` ` | | ` ` |  .o.X.|.s a b > < 7 m a 7 a M N N 7 N z z z 7 7 a u p u 6 > 6 p d u 6 - ; = > p a A s q.;XX.X.2.j f r 2 w w r w ; ",
"| | ......`  .O.9.A.N.& Q > , p z z 7 > 6 d a a c z z z z 7 7 > u 0 0 > 0 p p p b v p > > , 9 p A A a |.V.] 9.2.) j r 2 2 w w w ",
"..........| ..2.y.`.g M C p < c p > > - - u d 3 b > p b p p d u p 9 0 9 p p c 9 B n v p 9 9 9 c A A N :.}.q.o.9.+.) Z i 2 ; w r ",
"........ .] X.4.i.S.# C p c , , 9 > 0 s k C s u s = p b > u d 0 0 < < 9 v B n v v n n v x x c m N 8.N a +X_.4.2.2.O. .E r ; ; w ",
"....o.o.E g C > }.A L b L < = , p > : 0 0 > p b v v c c p , > < 9 , < , c n B n H G n m c c c n K >.Q n :.yXA Q } 4._ _ | Z f * ",
"| E o.g 6 { = [ T.c G m K c c n 9 9 B :.u.c.Y.).;.K H v c c n n n n v n n G n n c m n n n n H K F H =.K c ).T.< A { 1.9.2._ U j ",
") E 0.) 3 S = ].3.X < + , : + + > < 9 B K ;.>.6.B v , % + % < , n n n n n c x , x c m c , , c n K D H L < >.0Xv A S 1.4.2.O. .+.",
"o...o.p.M   b tX~.d.c.h.c.g.g.d.f.d.d.f.f.d.u.d.b.c.c.x.x.x.c.c.x.g.g.g.g.d.e.7.>.8.>.,.K L L K D L n H >.,.9Xc.A C 4.2. .9.O.O.",
"E | E 9.Q d l.&XrX3XfX0XrX0XrXrXpXpXpXjXkXkXkXkXrXrXjXxXxXjXjXfXxXxXjXjXjXuXrXrXjXfXrXrXrXrX0X0XeXdXwX=XzX$X*X*X:.J u.y.2.O. .O.",
"..a.B.o.E v.&X$X%X*X9X*X7X*X9XtX*X&X&X*X*X*X*X*X9X9X0X0X0X0X0X0X0X9X9X9X9X9X9X0X0X9X<X9X0X0X0X9X7X=XdX=XrXjX#X<X).6.} 2.9.O.| O.",
"H. X`.2.X.}.@XOX<X9X*X*X9X9X*X*X3X<X<X<X9X0X0X9X9X9X7X7X7X7X7X9X7X7X7X7X7X7X9XwX7X7X7X7X7X7X7X*XeX=XeX=X#XeX=X%XpX~.:.{ 9.0.0.0.",
"'.[.| ] p.@X+X3X3XtX$X*XrXrX9X7X9X9X<X<X<X9X7X<X9X9X9X9X9X9X9XwX7X9X9X9X9X9X9X9X9XwX0X0X9X9X9XwX7X6X7X8XwX8X9X*X<XqXT.i.q.9.y.0.",
"E | | 2.`.;XoX*X3X9X7X*X*X0X0X9X9X9X7X9X9X9X0X0X7X7X7X7X7X7X7X7X9X9X9X9X9X9X9X9X9X9X0XwXwXwXwXwX8X7X7X8XeXwX7X9X*X3X4Xk.9.l.0.y.",
"....E 2.}.2X+X3X3XtX9X*X7X0X0X9X9X7X9X9X9X0X0X0X9X9X9X9XwXwXwXwXwXwXwX9X9X9X9XwX9X0X0XwXwXwXwXwX8X7X7X8XeXwX8X9X=X<XqX(.9.p.y.y.",
"E E h y.@X;X@X*XtX0X0X9X9X0XrX0X9X9X9X0X0X0XwXwXwXwXwXwXwXwXwXwXwXeXwXeXwXwXwXeXwXwXwXwXwXwXeXeXwX8X8XeXeXwX8XwX*X<XqXtXi.X.n.p.",
"j j E B.;X&X&XqXtX0XrX0X9X9X0XrX0X0X0X0X0X0XeXeXwXwXwXwXeXeXwXwXeXeXeXeXeXeXeXeXwXwXwXeXeXeXeXeXeXwXwXsXsXeX8XeXwX7X3XjXF.M q.i.",
"h y Z l.@X@X@XtXtX0XrXrX0X9X0XrX0XeXeXeXeXeXeXeXeXeXeXeXeXeXeXeXeXeXeXeXeXeXeXeXeXeXeXeXeXeXeXsXeXeXeXdXdXeXeXeXeX9X*XjX*Xb J 4.",
"4 4 E N.;XyX;XqXqXqXrXrXrX0XrXrXeXeXsXsXsXuXfXfXsXeXeXeXsXsXsXsXeXeXeXeXeXeXeXeXeXsXsXsXdXsXsXdXsXrXdXfXdXeXeXsXwX9X*XpXNX3.p J ",
"y e 9.N.'.4X&XjXpXrXrXfXfXrXrXrXuXuXuXfXfXfXfXfXfXfXfXfXfXfXfXfXfXfXsXsXsXsXfXfXfXfXfXfXfXfXfXfXdXdXdXgXdXsXsXfXrXrX0XjXvXT.- 0 ",
"y 4 0.E ] N.F.2XpXyXrXjXjXpXrXrXuXuXuXuXfXfXfXfXfXfXfXfXfXfXfXfXfXfXfXfXfXfXfXfXfXfXfXfXfXfXfXfXdXdXfXgXfXsXsXfXlXxXuXuX3XOX= o ",
"e 2 p.E Z ] 9.1.n.^.4XcXpXyXyXpX3XkX0XiXvXuXiXkXuXfXjXhXfXgXlXgXgXhXeXfXvXlXhXfXlXgXhXhXgXgXlXlXlXgXfXfXfXhXlXMXfX#XR.Z.k.D.! X ",
"4 4 y.] E | y.p.A.y.2.N.@XxXxXtXpXkX0XtX0XiXkX0XkXuXeXjXlXfXdXjXfXhXMXeXwXsXlXfXgXgXlXlXlXgXgXgXgXmXlXlXMXMX7X).W.W.T.).Q.~.3.% ",
"2 j 0.)  .) y.p.p.9.9.y.n.V.oXaX&X<XqXjX9XtXzX0X0X0XrXfXjXgXzXMXhXjXNXhXhXfXlXfXeXsXfXhXgXgXgXgXgXfXlXvX7X.X].$X$X$XW.~.D.D.j.s ",
". E o. .r.O.p.0.y.y.y.y.q.i.V.(.kXkXiXkXpX0XjXuXrXkXjX9X9X0XXXb.)..XZ.OXvXuXeXsXsXsXfXfXgXgXgXhXlXvXsX$X$X9X<XOX%X%X~.}.].^.Q.C ",
"* O.O._ O.0.B.a.r.4.2.9.l.F.S.n.~.$X).).3XrX7X<X0XkXzXMXVXvXU.c b.XX! Y.zXlXhXMXMXMXmXlXlXlXlXxXvX1X$XhXNX0X}.].Q.].F.{.(.!.{.} ",
"* r.a.0.+. .r.4.4.r.y.y.p.N.V.k.~.uXR.B B H H ! >.! L ;.7.h.7.! ].vX,.,.U.b.x.c.h.h.h.h.h.h.z.x..X%X<XXX).W.Q.Z.Z.Q.F.^.F.!.2XZ.",
"2 a. X5X2X|.^.A.p.i.9.1.1.3.3.{ u.pXBXuXuXrX0X0X*X*X*X%XXXY.e.;.s.).,.! R.)..XXX-X-X#X#X=X=X6X7X7X].Y.E.E.Z.Y.].Y.(.OX1X1X4XVX].",
"# E l.|.2XaXaXnXnXaX2X;X&XoX}.(.U.%XrXkXzXxXkXjXkXkXkXkXBXNX$XZ.g.c.Z.b.jXzXMXzXzXzXmXMXmXmXzXxXsX%X.XXX%X7X0X0XvXjXbXbXbXbXVXT.",
"# & 6 ] l.F.(.oX2X;XaXaXpXzXkXbXbXtXtXjXtXNXNXzXBXxXNXNXBXkXVXvXjXkX0XiXvXzXuXvXzXzXzXBXfXNXrXNXMXlXgXMXBXMXMXBXBXzXVXzX0X3XZ.J ",
"- &     . & u C 1.3.v.T.(.+X$XtXqXpXrXkXxX-X/.-XXX#X$XOX<X&X&X3XqX<X0X9X<X<XrX9X7X7X0X*XxXNXBXlXMXmXMXlXMXfXsX6X=X/.U.b.5.c 1 K ",
"6 N M ; # o . . & o = = c H L 5.>.g.k.T.R.>.*.>.c.h.c.c.k.D.j.k.k.f.v.k.U.v.U.b.g.R.b.R.b.).-XXX-X-X-X/./.b.h.,.*.D c < l c *.R.",
"6 4.l.y.2.] h 3 # # # # = $ . < 7 < : , m L /./.b.).b.c.*X1Xi.+Xe.W.k.7.rX~.7.R.f.).b.).5.L ;.5.,.5.,.-.L L D n l D *.*.d.).-XXX",
". X.B.B.N.A.G.G.p.i.2.] S a 7 7 $ + O : , m U.I.b.c.7.f.XX{.} S.j.j.D.T.*Xb.d.j.7.U.U.R.d.: n , , x < L n ,.5.z./.).=XgXjXmXwXz.",
"2 o.a.y.0.+.0.y.B.N.N.S.V.V.V.i.f.v.7.5.7.=.z..X/.XXh.u.&X~.V v.3.W.Y.Z.qXc.! R.>.R.U.W.d.;.g.g.E.W.Y.OXXX<X<XxX9X-X.XR.z..X7Xc.",
"* ` M.A.a.$.+.0. .O.p.H.G.A.i.; < H L ;.,.K *.h.).R.U.T.}.^.F.!.v.{.{.{.3X).b.OXb.$X).XXs.d.c.U.d.h.Z.).OXOXXX).c.Y.U.c.Z.9X0X5.",
". E B.K.G.r. .+.r.$.r.A.A.^.H.Z o     O   z D D L D L H J A 1.} ;.K ;.:.! ;.,.K :.>.! 5.;.+ @   X 0 7.k.%X$XOXZ.Y.).U.Y.%XNX%XB ",
". j a.H.`.H.A.a.r.r.+.O.a.H.[.[.b X   X + O + : 1 % = = : : : : = = = = = = : : < < 9 n n n c ,   B ;.c.&X%X].$X9X#X$X$XrXVXXXB ",
". e o.N.^.[.[.[.H.H.A.A.H.[.[.[.oXf.b +                         X X O X X X X X     X X X + = : ,.E.%X0X0XXX).9XzXkXkXjXNXfXb.B ",
". . 3 ] p.N.G.`.[.|.|.[. X X|.|.|.{.{.{.~.F.l.u.i.u.6.6.3.1.:.{ [ [ ! K J J J J 6.u.f.k.D.~.XX$XtX0X0XuXzXkXuXkXqXrXrX0XrX).,.L ",
"#     # d S ] 1.p.l.A.F.^.^.^.[.{.{.}.oX}.+X2X2X2X2X2X2X3X4X3X3XqXqXqXqXqXqX4X4XqXqXqXqX4X4XqXqXqX3X9XrXrX0X*X$X$XXX).W.U.e.H K ",
"# o       o # & 6 b S } X.2.9.p.p.i.l.S.S.F.S.i.Z.S.S.S.F.!.!.!.!.!.!.~.~.~.~.~.Q.T.T.!.~.(.(.(.).).XXXX).W.).W.).k.d.5.! ! K K ",
"o = o       .     . o o ; ; > b S S J } ~ } :.} { { } } { { { { 1.1.1.1.1.2.3.1.e.4.3.1.6.e.e.e.j.7.5.5.6.7.e.5.8.c c 9 , L ;.J ",
"+ o X                         o   o ; - o o & - ; ; ; - u p a s u u u u p p p p s d p p d s V C > p b n c > +   =     X , J K K ",
"< X                     X       o                                                   X           X       , v , : < , , < H K b K ",
"= = + X X               X   X                 .                   X     X     =   X X     X X X % = : b :.f.g.u.:.u.f.3.A L [ H ",
"< < : = + o X X                 X @ . X         + + + % : : : 1 : : : : , : X   + = : : : + + + = : > p J 3.e.6.K ;.>.[ n A J H ",
"< = = = + X     X X . . X           @ @ @ @ @ @     @ + 1 1 : : @ @ + X   + , < 1 + : , , : , c , N [ :.3.7.7.5.:.Q K J A A J H ",
"A C b b p p > < = = = = + + + % @ @ O + + + + @ O + + + + + + + , : : +   < n , H H K ;.K n c n H 3.f.k.f.u.u.7.3.J A J J H J J ",
"Q J S S C M b c M N N b b b b N n n n n m c 7 , c c c c 7 , , , > = < p p H J c J [ 5.u.7.;.J K 3.u.f.u.6.3.u.f.u.:.[ [ A b b b ",
"{ { { } } } } Q J J J J J J J Q b b n B A A b c p c n A A H J K ! J J A b A 3.f.f.k.D.D.v.v.D.T.T.T.T.D.v.D.!.(.{.T.U.D.v.k.k.f.",
"4.4.2.1.2.4.4.q.4.q.q.6.6.6.q.u.v.v.v.D.D.D.D.v.v.D.T.~.(.(.}.XX}.}.^.v.6.{ 6.v.{.+X2X1X@X&X2X4X3X:X:X3XtXqXqX4X3X;X&X&X;XyXyX&X",
"}.}.}.}.|.oX@X;XoXoX+XoXoXoX+X&X3X3X3X3X3X3X@XoX&X3X3X3X3X3X3X4X4X4X1X2X&XD.1.} } j.{.&X2X4X2X@X+XoXoX+X3X3X&X+X3X&XoX(.~.{.!.f."
};
