/* XPM */
static char *_5cdc271de944af1e811789ee7cd9c4fLySPNA1ZdW4ZtISM[] = {
/* columns rows colors chars-per-pixel */
"64 64 43 1 ",
"  c #32312C",
". c #33322D",
"X c #34332E",
"o c #35342F",
"O c #363530",
"+ c #373631",
"@ c #383732",
"# c #393833",
"$ c #3A3934",
"% c #3B3A35",
"& c #3C3B36",
"* c #3D3C37",
"= c #3E3D38",
"- c #3F3E39",
"; c #403F3A",
": c #41403B",
"> c #42413C",
", c #43423D",
"< c #44433E",
"1 c #6C6B66",
"2 c #6D6C67",
"3 c #6E6D68",
"4 c #6F6E69",
"5 c #706F6A",
"6 c #71706B",
"7 c #72716C",
"8 c #73726D",
"9 c #74736E",
"0 c #75746F",
"q c #767570",
"w c #777671",
"e c #787772",
"r c #797873",
"t c #7A7974",
"y c #7B7A75",
"u c #7C7B76",
"i c #7D7C77",
"p c #7E7D78",
"a c #7F7E79",
"s c #807F7A",
"d c #81807B",
"f c #82817C",
"g c #83827D",
/* pixels */
"iiiippsdsdddspyyuuipppiippiipppipuyupddpppdggsueiipppiuuppppdgds",
"3332333365533333333555536535665353123533323355213555533333336765",
"+++oooo+++oXo+#$++@@##@@#@+@###+@+oo++ooX   o+++@@##@@+++o++##@+",
";---------***-;:--;;::;;:;--::;-;-------**&*-:;;;;::;;-----;:>:-",
"-----;:>;;:::;---;;::::::;-;:::------;:>--;:>>;-:::::;;-;--;>>:-",
"&&**--;::>>>>:-*--;::::;:;--;:;-&*--*-;>--;::;-$;::::;------;;-*",
"------;:>>>::;----;:::;;;---;;;-*-;-**;>:;---;-*;;:::;------;;-*",
">:;;--;;:;-**-;;---;;;----*----*;:>:--->>;*&*-::--;;;---:;;;::;-",
"------;;;;;;;;;;-:>>;-;>;;;;;;;;------;;;------;----------------",
"------;;--------&-;;-*----------------;;;------;----------------",
"------;;--------&----**---------------;;;------;----------------",
"------;;----------;;------------------;;;------;----------------",
"------;;;;;;;;;;----;;----------------;;;------;----------------",
"------;;;;;;;;;;-**----&--------------;;;------;----------------",
"------;;----------*-;;-&--------------;;;------;----------------",
"------;;-------->;-;>>:-;;;;;;;;------;;;------;----------------",
"--------------------;:;-;;--;;-&------;;*------*--------**---;::",
"--------------------;:;-------*$------;;---------------------;;;",
"--------------------;:;---*---*$------;;------------------------",
"--------------------;:;--------&------;;;------;---*------------",
"--------------------;:;-;--;::;-------;;;;----;;-*--------------",
"--------;;;;;;;;----;:;-;--;>>:;------;;;;----;;**--------------",
"--------;;;;;;;;----;:;----;:>:-------;;-;;;;;;--------------;;;",
"--------;;;;;;;;----;:;--*--;:;-------;;--;::;----------**---;::",
";;;-----::::::::-;;::;;-;;;-----:::;;---::::::::--------;;;-----",
"--------;;;;;;;;--;;;;----------;;;;----;;;;;;;;----------------",
"------------------;;;;------------------------------------------",
"-----;;;-----------;;--------;;;***--------------------------;;;",
"-----;;;---------------------;;;***--------------------------;;;",
"----------------------------------------------------------------",
"--------------------------------;;;;----------------------------",
";;;-------------*------*;;;-----:::;;-------------------;;;-----",
"--;;;;------;:>>*------*----------;;;;--------------;;-&--------",
"---;;--------;:>-------------------;;-------------*--;-*--------",
"---;;---;;---;;:--;;;;-------------;;---;;;-----;-**------------",
"--------::;------;;::;;-----------------::;---**;-*&------------",
"-------->:;------;;::;;-----------------::;---**;-*&------------",
";------;>:;-------;;;;----------;------;;;;-----;-**------------",
";------;:;;---;;----------------;------;----------*--;-*--------",
";;----;;;;;---;;*------*--------;;----;;------------;;-&--------",
"------------------;:>>::;;;;;;;;---------;:::;---;;::;;-;;;;;;;;",
"------------------;:::::;;;;;;;;---------;:::;----;;;;--;;;;;;;;",
"--------;;;;;;;;--;::::;;;;;;;;;---------;;;;-----;;;;--;;;;;;;;",
"--------;;;;;;;;--;::;;;;;;;;;;;--------;;;;-------;;---;;;;;;;;",
"--------;;;;;;;;-;;;;;--;;;;;;;;--------;;--------------;;;;;;;;",
"-----------------;;;;---;;;;;;;;--------;---------------;;;;;;;;",
"-----------------;;;---*;;;;;;;;--------;--***----------;;;;;;;;",
"--------********-;;;---*;;;;;;;;--------;--***--*------*;;;;;;;;",
";;;;;;;;------;;--------;-----;:-;;::;;---;;---;&&*--;;:;-----;:",
";;;;;;;;------;;--------------;:--;;;;----;;---;***----;------;:",
";;;;;;;;------;;;;;;;;;;------;;--;;;;----;;---;--------------;;",
"--------------;;;;;;;;;;------;;---;;-----;;---;------**------;;",
"--------------;;-------------;------------;;---;;----***-----;--",
"--------------;;-----------;;;------------;;---;------**---;;;--",
"--------------;;--------*--;;;------------;;---;--------*--;;;--",
"--------------;;;;;;;;;;*--;;;--*------*--;;---;--------*--;;;--",
"&&&*----*------**-------:---;:;-$$&&*--------------;;-------;:;-",
"*-----;;-;;::;;--;::::::>:;;>>:;:>>>>><<>>><<>>>**----**;---;::;",
"--------$$$&&$$$$$&&*&&&&$$$&&&$&&&&****$&&**&&$-;;::;;-;---;:;-",
";;;;;---:>>>>>>::>>>>>>>>:::>>>:>>>>>:::::>>>>:::>>>>>>:;---;:;-",
";;;-------;;;;---;;:::::;---;:;->>>::::::>>>>>>:------------;;;-",
"+++@@@@@Xoo++ooXXo+++++++oXo+++Xoooooooooo++++oo+@@##@@+@+++###@",
"3333555699000099990qqqq0qq00qqq077779990777997776777777665356765",
"yuuippppryyyyyyrryyyuyyyiuyyuiuyyyuuipppyyyyyyyyuiippiiuppppsssp"
};
