/* XPM */
static char *_95abba30bda43839aaa2a054b239430ljNlzEznbv3eCTSo[] = {
/* columns rows colors chars-per-pixel */
"64 64 253 2 ",
"   c #160C08",
".  c #131519",
"X  c #191819",
"o  c #0E0F11",
"O  c #2A1E19",
"+  c #251C17",
"@  c #221309",
"#  c #2C231B",
"$  c #282417",
"%  c #32251C",
"&  c #39281B",
"*  c #37381C",
"=  c #1C1D22",
"-  c #221F23",
";  c #1E2123",
":  c #242424",
">  c #2B2524",
",  c #2C2925",
"<  c #2C262A",
"1  c #272929",
"2  c #2B2B2B",
"3  c #242728",
"4  c #322622",
"5  c #342B23",
"6  c #3B2D24",
"7  c #342C2B",
"8  c #3A2E2C",
"9  c #32272A",
"0  c #2D332D",
"q  c #33332D",
"w  c #3C322B",
"e  c #3A3727",
"r  c #2C2D31",
"t  c #272F32",
"y  c #332C32",
"u  c #372E36",
"i  c #2D3234",
"p  c #2E3437",
"a  c #323334",
"s  c #3B3433",
"d  c #3B3B34",
"f  c #33353A",
"g  c #36393C",
"h  c #3A3B3C",
"j  c #373737",
"k  c #1E231F",
"l  c #472A1B",
"z  c #42342C",
"x  c #44392D",
"c  c #4A3629",
"v  c #583727",
"b  c #423532",
"n  c #443A32",
"m  c #4B3B33",
"M  c #463A38",
"N  c #533D34",
"B  c #573E37",
"V  c #412E24",
"C  c #653D2B",
"Z  c #633F32",
"A  c #773A27",
"S  c #5A210F",
"D  c #3E4139",
"F  c #4C423C",
"G  c #47443B",
"H  c #544235",
"J  c #54453B",
"K  c #5A483B",
"L  c #484930",
"P  c #624A3D",
"I  c #6B4A3B",
"U  c #674536",
"Y  c #764A38",
"T  c #7A523C",
"R  c #684733",
"E  c #40411F",
"W  c #3C3D43",
"Q  c #353942",
"!  c #443E43",
"~  c #3E4143",
"^  c #434345",
"/  c #4A4543",
"(  c #44454B",
")  c #4A4B4D",
"_  c #494A48",
"`  c #534B44",
"'  c #5B4C42",
"]  c #544B48",
"[  c #4D534B",
"{  c #55524D",
"}  c #5A5449",
"|  c #4B4B53",
" . c #474751",
".. c #4E5152",
"X. c #535354",
"o. c #5C5554",
"O. c #595A58",
"+. c #544E52",
"@. c #634E43",
"#. c #694C43",
"$. c #6C5244",
"%. c #6D5A4C",
"&. c #675548",
"*. c #735344",
"=. c #735A4B",
"-. c #7B5C4C",
";. c #785747",
":. c #635C5A",
">. c #655B54",
",. c #765C52",
"<. c #734F44",
"1. c #68635A",
"2. c #7C6253",
"3. c #756357",
"4. c #7A6B52",
"5. c #585861",
"6. c #6A6965",
"7. c #737368",
"8. c #767270",
"9. c #5C605B",
"0. c #8B553E",
"q. c #875B47",
"w. c #975A47",
"e. c #8A5B4F",
"r. c #A8574F",
"t. c #8D634B",
"y. c #876349",
"u. c #93634C",
"i. c #99654B",
"p. c #836353",
"a. c #8B6553",
"s. c #8D6A55",
"d. c #856B5B",
"f. c #876959",
"g. c #956A53",
"h. c #9B6C55",
"j. c #966956",
"k. c #8C715D",
"l. c #94725D",
"z. c #9C745C",
"x. c #9C7457",
"c. c #A66B58",
"v. c #A3735D",
"b. c #A8775A",
"n. c #B3795D",
"m. c #B4685D",
"M. c #887466",
"N. c #937362",
"B. c #997A68",
"V. c #847D77",
"C. c #8B7366",
"Z. c #AC7562",
"A. c #A47C64",
"S. c #AC7C64",
"D. c #A77965",
"F. c #B47D64",
"G. c #B87A67",
"H. c #B67165",
"J. c #C2786B",
"K. c #C5776D",
"L. c #7E8178",
"P. c #9C8168",
"I. c #988577",
"U. c #87847B",
"Y. c #A88469",
"T. c #B58265",
"R. c #BB8365",
"E. c #B4846B",
"W. c #BC846C",
"Q. c #BD8A6C",
"!. c #B58A6C",
"~. c #A98774",
"^. c #B98974",
"/. c #B99378",
"(. c #A7947C",
"). c #B8825C",
"_. c #C28A6C",
"`. c #C5856A",
"'. c #C48B72",
"]. c #CB8C74",
"[. c #C68776",
"{. c #CB9274",
"}. c #CD947A",
"|. c #CC9A7C",
" X c #C49679",
".X c #D3957B",
"XX c #D6977A",
"oX c #D38C76",
"OX c #DAA27E",
"+X c #E1A37E",
"@X c #788180",
"#X c #929087",
"$X c #A58E82",
"%X c #AA9586",
"&X c #BA9985",
"*X c #A79B96",
"=X c #A6A59B",
"-X c #B3A394",
";X c #B9B5AA",
":X c #B4B2AC",
">X c #C49B83",
",X c #CB9D82",
"<X c #C79987",
"1X c #D79C84",
"2X c #C98F81",
"3X c #CAA289",
"4X c #D9A686",
"5X c #DAB497",
"6X c #D4AA96",
"7X c #E4A889",
"8X c #E6AC93",
"9X c #EAB899",
"0X c #F3B799",
"qX c #E6B08F",
"wX c #D9B9A4",
"eX c #C2BBB3",
"rX c #C7B4A6",
"tX c #E9BBA1",
"yX c #F3BCA2",
"uX c #E69B88",
"iX c #BEC2A4",
"pX c #F3C69E",
"aX c #EDC69C",
"sX c #CBC5BB",
"dX c #D5C7B9",
"fX c #C8CBAD",
"gX c #E8C3A5",
"hX c #F6C8A3",
"jX c #F8D2B0",
"kX c #D4CDC1",
"lX c #DBCEC3",
"zX c #D6D1C4",
"xX c #DAD4C6",
"cX c #DBD6CA",
"vX c #DDD9CC",
"bX c #D8D7C8",
"nX c #DADAD2",
"mX c #C7C8C4",
"MX c #E2DBCD",
"NX c #E8DACC",
"BX c #E4DDD3",
"VX c #E8DFD5",
"CX c #F0DFD0",
"ZX c #E5E1D5",
"AX c #E9E2D6",
"SX c #E6E2DB",
"DX c #EBE5DA",
"FX c #EDE9DD",
"GX c #E8EBDA",
"HX c #F1E6D9",
"JX c #E6E2CF",
"KX c #E8E6E1",
"LX c #DFE1D6",
/* pixels */
"| | | | | | | | ( ( (  .)  . .( (  .( ~ ~ _ _ D G G G G d d n L * E * * D L D e D j j h O.X.5.O.O.:.V.;XeXsXsXkXzXbXcXMXBXVXAXDX",
"W W W W W W W W Q Q W W W W W W ~ g g ^ ( h h ^ D d d G ` G G G P 4.7.} L e D G d d h g X.O.5.| o.:.V.;XeXsXsXzXxXbXcXMXBXVXAXDX",
"Q Q Q f f f f f f f a a r r r i r i i 2 2 2 2 1 q d O.8.#X#X*X;XfXiXfXdXiXU.} } { O.O.^ X.O.O...O.:.V.;XsXdXsXxXxXbXvXMXBXVXAXDX",
"W W W W W Q Q Q f f a a a r r r 1 i 1 ; 1 ~ [ [ X.[ _ G d q [ 6.7.%XfXbXGXJX;X#X6.7.7.{ X.) O.O.o.:.V.;XsXkXdXxXxXbXvXMXBXVXAXFX",
"( ( ( ( W W W W W f f Q W W f f h 2 2 ( O.O.^ j 1 2 q a j j , $ e $ * 1.=X;X=X#X7.7.7.o.o.` { o.o.:.V.;XsXkXkXbXxXcXvXBXVXZXDXFX",
" . .( ( ( ( W W ( W h W ~ h f f i _ 6.O.h : : r a a r 1 1 a j q X e e $ $ G o.o.7.6.6.1.6.o.o.{ o.:.V.eXsXzXkXbXbXcXMXBXVXAXAXFX",
" . .( ( ( ( ^ ^ ^ W W W Q f f W O.X.f X : g h i 2 a j a 2 1 1 2 q q % 5 e e d ` >.1.7.1.7.1.:.o.o.:.V.eXsXzXkXbXbXcXMXBXVXAXDXFX",
"( ( ( ( ( ( ^ ^ Q h W ^ W h ( O.^ g a a 2 : : 1 q 1 : 1 2 2 1 2 1 , 2 q q 7 , 7 d o.6.o.:.:.6.1.o.:.V.eXsXzXkXbXbXcXMXBXVXAXDXFX",
"( ( ( ( (  .( W W W h g h h 9.^ 2 2 2 2 2 2 2 1 1 1 < 1 < 1 1 < < < < 2 7 7 7 y s s / o.:.>.o.:.6.>.U.eXeXvXzXbXcXvXMXBXVXAXAXFX",
" . .) ( ( ) ( ~ ^ ( ^ W f 9.h g 2 2 2 1 1 : : 1 1 : 1 1 1 1 , , < < < < < < < < 7 y h / +.o.:.o.o.o.V.eXBXkXsXcXcXvXMXBXVXAXAXFX",
"( ( ( ( ^ ( ^ W ~ W ^ g X.X.2 2 2 2 1 1 : : : > > , 5 5 7 7 8 8 s u y y y y 9 9 < 7 y a ! X.O.X.>.o.:.U.vXzXdXbXcXvXMXBXVXAXDXFX",
"W W h g f f f f f r 2 ^ 6.2 2 1 1 1 : : : 1 > 5 8 8 w w b b b M M M M s u u u y 7 9 < 2 s _ X.o.o.>.} ] *XbXcXkXcXvXMXBXVXAXDXFX",
"f f f a i i a a r i 2 O.~ 1 1 2 : : : : : , 7 8 w w b b m m m m b b b b s 8 8 8 8 9 < 2 7 f ^ X./ { 1.] 1.sXcXzXcXvXMXBXVXAXDXFX",
"f f f a a i a f f f O.) 1 i 1 : : : : 1 , 7 7 8 8 w z x m m m m x b b b z 8 8 7 7 > > 2 2 < f _ { ] >.o.` :XbXvXcXvXMXBXVXAXDXFX",
"g f f f a a f W g ^ 6.i 1 1 2 : : : 1 1 , 7 8 8 w z m m B B B B H H N m m z w w 5 5 , , 1 1 7 a { { ` ` ` U.vXxXcXvXMXBXVXAXDXFX",
"f f a f a a f W r O.W f 1 1 1 : : : : 1 7 8 w 8 m m B K P P P P P K K H m x z 8 4 7 7 > > 7 7 2 q :.{ ` ] 1.bXzXcXvXMXBXVXAXDXFX",
"a a a a f a f h h 8.r r r : 1 : k : 2 q 7 8 8 b m B @.#.<.<.<.*.#.%.$.K N m z 5 5 > > > 7 7 4 > s ^ o._ { ` U.KXbXbXZXbXFXZXDXFX",
"a a a a f a f h  .6.2 r r : 1 1 2 1 , : > 4 8 z c B #.=.p.p.e.q.-.-.*.P N m c 8 4 4 > > > 4 7 8 : f ^ X.{ / 1.sXBXbXBXvXDXZXDXFX",
"j a a a f a f f X.) 3 2 2 : : , 5 % # % 5 z m N B P *.-.a.s.a.q.y.a.e.*.#.#.#.@.B N m z 6 5 4 5 7 s h :.o./ ` =XZXbXvXBXZXZXFXDX",
"j a a a a a f f X.h 2 2 1 1 # > % & V N K #.$.*.=.-.-.p.a.s.t.y.s.s.s.a.p.p.d.2.%.%.,.&.' m 6 % 7 7 s { o./ G V.ZXvXvXZXZXBXFXDX",
"g a i a a a f j O.h s > # 5 7 8 c B #.-.-.p.p.f.f.s.l.g.s.t.y.y.t.g.j.s.a.p.-.=.=.,.,.2.,.$.K m 6 4 n F >.} ` >.zXBXbXZXBXBXFXDX",
"g a p a a a a s :.M 8 O % 6 m H $.;.p.p.p.-.-.e.p.s.l.l.g.q.T T t.u.u.t.q.;.I I I #.$.=.2.2.,.*.J x H z } &.} ` ;XVXvXZXBXZXFXDX",
"g f p f a a s s 6.M 5 % m c ' =.p.p.p.;.<.I I I ;.q.a.g.g.u.q.q.u.t.q.q.T Y U U I I I *.-.p.f.f.=.' K H &.3.} n *XAXvXVXBXZXDXDX",
"g f p f a a s s 6.F 6 m %.K =.f.f.p.-.*.<.I I U I Y ;.e.h.v.Z.b.i.u.q.T R C Z Z I I #.*.-.p.f.N.C.d.d.I.I.$X>.n #XAXBXBXZXZXDXFX",
"f f f f a a a s 1.` K d.p.-.N.N.k.d.-.$.I U U U v U Y q.Z.[.[.W.D.g.T R C C R Z U Z U *.a.B.B.k.B.~.(.%X-X%XI.6 V.AXVXBXAXVXAXFX",
"g f p i i i q 8 1.' $X%XP.Y.l.B.B.d.=.P v l c Z Z v C u.^.[.G.[.F.v.e.Y R C R I l l v U *.e.N.~.B.Y.~.&X&X%XI.m 3.MXBXMXZXZXDXFX",
"Q f p i i a s w >.%.dX6X/.^.b.z.2.$.P K v l c U Z v Y Z.[.J.J.K.G.S.z.e.T I Y T Z U I ;.<.I -.N.z.S.!./.&X&X%XK } xXBXvXVXAXFXFX",
"Q f p i f g M F &.M.dXwX>XT.Q.x.T *.*.;.I v Z I C Y c.G.G.G.K.J.F.T.F.v.j.e.q.q.;.;.e.s.s.t.s.h.h.v.Y./.&X&X%X&.J lXVXBXVXAXFXFX",
"Q g f f g h / F &.B.gXwX6XQ._.c.h.z.l.s.y.;.;.T q.h.[.].`.].oX`.R.W.W.W.E.D.z.h.t.t.t.g.z.D.v.v.h.c.b.!.&X&X&X%.m kXVXBXVXDXFXFX",
"Q g f f f g G G &.P.jXtX9X7XR.n.T.E.D.h.g.z.A.z.E.W.]..X1XXXXX]._._.W.W.Q.Q.W.E.S.F.S.v.v.v.v.c.b.b.b.!./.&X&X3.m dXBXBXVXAXFXFX",
"Q f f f f f s x K %XgX9XhXpX7X.XW.R.F.n.F.^. X X1X|.]..XuXXX`.`.`.`.`.`._._.'.'.'.Q.Q.W.R.T.W._.R.).T.!./.&X3XM.J kXVXBXZXAXFXFX",
"p p f f f f a w H wXwX9XhXhXjX0X{._._.}.}.}.}.1X1X7XXX].oX].G.G.n.R.`._._._._._.'.W.`.{.{._._.{.'._.Q.^./.&X6XB.@.xXAXVXAXZXDXFX",
"f p f f i p j e c wXgX9XhXhXhXjX9X4X{..X1XXXXXXXXXoXoXK.`.`.m.b.G.w.0.F.].`.G.].].].{.{.{.{.{. X|.|.,X X>X&X&XB.,.HXNXBXVXDXZXFX",
"f i u f i p 0 5 l 6XhXhXhXhXpXhXjX9X4X|.XXXXXXXXoXuXJ.S S w.Z.Z.i.A S A c.`.G.G.].].{.}.}.|.|.|.,X,X3X>X>X&X3XB.C.NXCXVXZXFXSXKX",
"i r y u t t 0 , l <XyXhXhXpXpXhXjXjX0X4X.X.X.X].oX].c.A A c.v.i.Z.u.Y 0.w.c.Z.n.`.].{..X.X.X.X|.,X,X3X>X>X&X3XB.B.rXNXVXMXDXDXDX",
"i r y y i i 0 5 U 3XyX9XaXaXhXjXhXhX0X7XXX{.].]..Xn.w.w.S.E.h.u.i.z.v.g.q.q.i.b.W.`.].].}.}..X}.,X,X3X>X>X&X3XB.B.I.dXVXcXAXDXSX",
"a 2 y f i i 0 5 N.6XhX0XaXpXhXhX0X0X0X7X.X_.'.}.{.^.S.h.D.E.v.z.u.t.u.j.h.v.b.Z.G.R.`.'.]..X.X1X,X,X3X>X>X>X3XB.N.C.eXHXNXDXFXDX",
"g r y a i i 0 5 B.<XyX0XhXpXhX0X0X0X8X7X.X'.{.,X4X XE.h.j.z.h.D.A.y.T y.D.E.^.W.W.W.[.'.].]..X}.,X,X3X,X3X>X<XN.k.d.rXHXCXAXBXAX",
") W h ! W g d w N.^.9X0XhXpXhX0X0X0X7X1X1X1X,X X4XE.g.q.e.u.j.^.g.q.Y T u.v.S.E.W.W.W.'.'.'.'.'. X X,X>X,X&X&Xl.d.C.-XCXNXAXxXDX",
"6.X.+.X...) _ J B.^.yXyXhX9XhX0X8X8X7X1X4X8X4X^.S.Z.v.h.c.H.H.G.G.S.c.j.i.h.h.h.v.v.S.E.W.Q.Q.Q. X X>X X>X/./.a.p.B.%XCXCXAXcXHX",
"#XX.] O.) ~ D n B.2X8XyXhX9X0X9X7X7X4X1X|.Q.S.S.c.F.[.2X[.K.J.H.Z.Z.F.G.G.Z.i.q.u.0.q.x.S.E.Q.!./.!.>X>X>XA.A.p.*.I.%XCXHXJXMXAX",
"=X7.:.o.) [ [ } B.E.1XyXhX9X9X9X8X8X4X'.n.i.u.c.[.[.J.m.r.r.r.r.r.i.i.c.c.c.c.h.u.0.q.t.h.Y.!./. X/.>X/.~.l.l.;.$.B.%XCXCXNXZXFX",
"=X8.6.o.[ O.[ } $X^.'.9XgX9X9X8X4X4XXXQ.n.c.b.W.[.G.c.r.r.m.r.0.w.w.w.w.w.c.c.h.t.q.y.y.y.b.!./././.>X~.B.s.a.-.2.C.%XCXNXNXDXDX",
"=X#XV.:...O.[ J &X^.F.4X5X5X9X8X4X4X|.R.n.i.i.i.c.`.[.K.J.K.K.m.K.G.H.c.c.w.q.0.t.g.x.u.t.b.!.!.^././.N.s.a.-.;.B.I.%XNXNXAXFXZX",
"sX;X*X6.[ O.O.} %X&Xh.!./.3X5XqXqXqX|.R.b.i.w.w..X4X8X1XK.J.J.H.c.m.m.G.G.G.E.T.h.b.Y.v.x.Y./.!././.~.s.-.p.*.$.I.I.-XCXBXAXFXZX",
"sX;X=X8...O.O.} ~.6Xh.v.Y./.3X4XqXqXOXQ.T.R.].4X9X4X}.W.G.G.c.w.c.m.m.Z.Z.F.F.S.S.T.!.T.b.T. XQ.~.A.l.-.;.f.*.,.C.%XdXAXBXBXDXDX",
"sX=X*X8.X.O.9.} ~.wXv.z.Y.Y.Y. X4XqX4X{.{..X7X0X.X}.{.W.b.u.q.q.w.w.c.c.n.S.F.T.E.T.Q.T.n.Q._.E.B.k.p.*.*.k.*.d.$XrXNXVXBXVXZXDX",
"SX:X*X8.X.O.6.1.C.wXN.z.P.z.z./.4X4X4XOX7XqX7X7X7X.X'.W.Z.i.q.q.w.i.c.n.F.F.F.F.T.T.T.R.T.Q.Q.S.N.d.2.*.$.d.$.M.rXlXVXcXBXDXZXZX",
"nX:X#X8.6.O.{ o.` %.C.B.B.l.l.A. X4X4XOX4X7X7X+XXXXX.X].W.F.Z.c.Z.F.F.n.n.R.R.F.T.W.T.b.b.E.E.A.l.d.=.@.%.3.&.rXNXMXMXMXBXZXSXKX",
"@X6.X.) ) ) _ / ' ' %.C.B.-.y.Y.Y. X4X4X4X7XOXOXXXXX7X8X8X1X<X[.E.T.T.R.R.R.n.n.n.T.T.b.v.A.B.k.d.d.%.@.3.3.3.sXMXcXvXMXBXZXSXKX",
"| ..( h W _ _ h M n @.C.B.-.*.N.z./.|. X|.|.OX4X7XqX9X9XtX6X<X&XE.v.v.S.E.T.T.W.S.T.D.h.s.s.f.2.=.$.K @.3.' M.MXxXcXvXMXBXZXSXSX",
"g ~ W i i f a : > 5 J 3.B.d.*.;.l.Y.Y.A.A.!. X4X8X8XqX6X3X2X~.A.B.g.q.u.v.D.S.E.S.A.l.q.*.=.=.%.$.H K &.&.J %XVXbXbXvXMXZXZXSXSX",
"3 3 3 ; = X X . + + % J 3.3.$.P -.f.f.y.a.z.Y./.>X>X>X&X/.Y.N.s.j.a.q.;.e.l.l.j.l.l.2.I K K K K H c J ' F :.sXzXbXbXcXMXZXZXSXSX",
"; = X = X . . X X     z >.%.K K H @.$.=.2.f.l.B.B.B.Y.Y.B.k.p.-.-.-.*.I ;.p.-.$.=.=.@.H m x x w V z m M M U.VXbXbXcXvXvXBXZXAXSX",
"= . . . . o o . o o   # ` >.' m x J ' K &.%.=.2.2.p.d.d.2.=.$.$.@.P P P #.$.P H K H m z 6 w 5 5 w m F / / 8.:XnXnXvXvXvXBXVXZXAX",
"X . . . o . . . o X     4 &.&.m n F G x x H K %.%.%.%.&.@.P @.&.@.J N H H N x m J m 6 4 4 5 7 5 6 x w / 7 - X.mXnXvXvXvXnXBXZXAX",
"= . o . . X ; r 3 X + X + n ] F m 6 5 6 6 w G J J J K K N m N m x x x x x z 6 6 w 6 # # , , , e z 6 ` n 1 2 : X.nXzXLXzXDXZXMXDX",
"= . . = = = 3 a ^ f a 1 > 5 s / % 6 z z 7 w x w 5 5 w z 6 & V 6 % 5 5 5 7 6 6 % 4 % + $ , % # % % %.V.w X 2 3 1 #XKXbXnXbXZXDXBX",
"; = = 3 3 3 i ~ X._ ^ / M w n V.x 6 6 w 6 4 5 5 5 4 7 5 % $ % $ $ # # # # 4 # + O O + + # # 5 z @.I.I.4 X - = 2 a mXnXZXzXZXDXBX",
": : 2 r r i W ) | ] _ ] { M / -XI.H & & 6 # % w 7 , 4 4 # O O + # # # # # # O + + # # O % 6 H %.I.(.M.@ > X = a ; 7.SXvXBXMXvXFX",
"1 1 a f g h ( ..) X._ / / M b -XwXk.v c V % % w 7 > 4 7 5 6 6 5 5 # + 4 4 O O % O & 6 V m P ,.C.B.(.3.  > + - = 2 0 bXnXZXMXvXFX",
"2 i j h ~ ^ | X.X.O._ M b b 4 $XwX/.s.R c 6 6 # b w w w z n m z z 5 4 7 4 O O % 6 z c K -.k.l.N.N.(.P   # X : = r 3 =XGXvXZXFXMX",
"a f h G ^ ) X.X.X.X./ s 8 b > $X5X3X/.s.R H H z F b b b z x z 6 z z w 6 5 5 6 V N P $.-.N.P.B.B.Y.Y.c   O   + 3 : 1 U.KXbXBXFXMX",
"a d D ^ _ ..X.X._ _ s 8 4 7 + $XgX5X3XY.p.=.%.&.} / F F N F N x 5 n n w w F K K @.2.d.k.N.B.A.Y.P.P.&   + + - . ; ; L.SXvXvXvXAX"
};
