/* XPM */
static char *wall1695809272[] = {
/* columns rows colors chars-per-pixel */
"64 64 76 1 ",
"  c black",
". c #080000",
"X c #1B0000",
"o c #230000",
"O c #2B0000",
"+ c #330100",
"@ c #360B00",
"# c #390E00",
"$ c #371000",
"% c #3A1400",
"& c #3C1904",
"* c #3C1B0B",
"= c #3E1F13",
"- c #3F2015",
"; c #402116",
": c #42241A",
"> c #44281F",
", c #462B23",
"< c #482F27",
"1 c #472E28",
"2 c #4A322B",
"3 c #4F3832",
"4 c #533B35",
"5 c #533E38",
"6 c #57413B",
"7 c #59433E",
"8 c #5C4641",
"9 c #624E49",
"0 c #64514D",
"q c #665552",
"w c #6E5E5A",
"e c #71625F",
"r c #736663",
"t c #7D6E6B",
"y c #7E706D",
"u c #847875",
"i c #867B79",
"p c #887C7A",
"a c #8F8583",
"s c #918887",
"d c #948B8A",
"f c #99918F",
"g c #9C9493",
"h c #9F9998",
"j c #A49C9B",
"k c #A9A19F",
"l c #ACA5A3",
"z c #AFAAA9",
"x c #B3ADAC",
"c c #B8B1AF",
"v c #B7B1B0",
"b c #BAB4B3",
"n c #BDB8B7",
"m c #BEB9B9",
"M c #C2BCBB",
"N c #C6C0BF",
"B c #C6C1C1",
"V c #CAC5C5",
"C c #CCC8C7",
"Z c #CECAC9",
"A c #D4D0CF",
"S c #D5D2D2",
"D c #D9D6D5",
"F c #DCD9D9",
"G c #E1DFDF",
"H c #E6E6E6",
"J c #E9E7E7",
"K c #E8E8E7",
"L c #E8E7E8",
"P c #EDEDED",
"I c #F0EFEF",
"U c #F0EFF0",
"Y c #F3F3F3",
"T c #F7F7F8",
"R c #F7F8F8",
"E c #F9FAFA",
/* pixels */
"                                                                ",
"                                                                ",
"                                                                ",
"                                                                ",
"                                                                ",
"                                                                ",
"                                                                ",
"                                                                ",
"          ;;;;;;;;;;;;;;;;;;;;;;;;;;;;;;;;;;;;;;;;;;;;          ",
"          ;;;;;;;;;;;;;;;;;;;;;;;;;;;;;;;;;;;;;;;;;;;;          ",
"          ;;;;;;;;;;;;;;;;;;;;;;;;;;;;;;;;;;;;;;;;;;;;          ",
"          ;;;;;;;;;;;;;;;;;;;;;;;;;;;;;;;;;;;;;;;;;;;;          ",
"          ;;;;;;;;;;;;;;;;;;;;;;;;;;;;;;;;;;;;;;;;;;;;          ",
"          ;;;;;;;;;;;;;;;;;;;;;;;;;;;;;;;;;;;;;;;;;;;;          ",
"          ;;;;;;;;;;;;;;;;;;;;;;;;;;;;;;;;;;;;;;;;;;;;          ",
"          ;;;;;;;;;;;;;;;;;;;;;;;;;;;;;;;;;;;;;;;;;;;;          ",
"          ;;;;;;;;;;;;;;;;;;;;;;;;;;;;;;;;;;;;;;;;;;;;          ",
"          ;;;;;;;;;;;;;;;;;;;;;;;;;;;;;;;;;;;;;;;;;;;;          ",
"          ;;;;;;;;;;;;;;;;;;;;;;;;;;;;;;;;;;;;;;;;;;;;          ",
"          ;;;;;;;;;;;;;;;;;;;;;;;;;;;;;;;;;;;;;;;;;;;;          ",
"          ;;;;;;;;;;;;;;;;;;;;;;;;;;;;;;;;;;;;;;;;;;;;          ",
"          ;;;;;;;;;;;;;;;;;;;;;;;;;;;;;;;;;;;;;;;;;;;;          ",
"          ;;;;;;;;;;;;;;;;;;;;;;;;;;;;;;;;;;;;;;;;;;;;          ",
"          ;;;;;;;;;;;;;;;;;;;;;;;;;;;;;;;;;;;;;;;;;;;;          ",
"          ;;;;;;;;;;;;;;;;;;;;;;;;;;;;;;;;;;;;;;;;;;;;          ",
"          ;;;;;;;;;;;;;;;;;;;;;;;;;;;;;;;;;;;;;;;;;;;;          ",
"          ;;;;;;;;;;;;;;;;;;;;;;;;;;;;;;;;;;;;;;;;;;;;          ",
"          ;;;;;;;;;;;;;;;;;;;;;;;;;;;;;;;;;;;;;;;;;;;;          ",
"          ;;;;;;;;;;;;;;;;;;;;;;;;;;;;;;;;;;;;;;;;;;;;          ",
"          ;;;;;;;;;;;;;;;;;;;;;;;;;;;;;;;;;;;;;;;;;;;;          ",
"          ;;;;;;;;;;;;;;;;;;;;;;;;;;;;;;;;;;;;;;;;;;;;          ",
"          ;;;;;;;;;;;;;;;;;;;;;;;;;;;;;;;;;;;;;;;;;;;;          ",
"          ;;;;;;;;;;;;;;;;;;;;;;;;;;;;;;;;;;;;;;;;;;;;          ",
"          ;;;;;;;;;;;;;;;;;;;;;;;;;;;;;;;;;;;;;;;;;;;;          ",
"          ;;;;;;;;;;;;;;;;;;;;;;;;;;;;;;;;;;;;;;;;;;;;          ",
"          ;;;;;;;;;;;;;;;;;;;;;;;;;;;;;;;;;;;;;;;;;;;;          ",
"          ;;;;;;;;;;;;;;;;;;;;;;;;;;;;;;;;;;;;;;;;;;;;          ",
"          ;;;;;;;;;;;;;;;;;;;;;;;;;;;;;;;;;;;;;;;;;;;;          ",
"          ;;;;;;;;;;;;;;;;;;;;;;;;;;;;;;;;;;;;;;;;;;;;          ",
"          ;;;;;;;;;;;;;;;;;;;;;;;;;;;;;;;;;;;;;;;;;;;;          ",
"          ;;;;;;;;;;;;;;;;;;;;;;;;;;;;;;;;;;;;;;;;;;;;          ",
"          ;;;;;;;;;;;;;;;;;;;;;;;;;;;;;;;;;;;;;;;;;;;;          ",
"          ;;;;;;;;;;;;;;;;;;;;;;;;;;;;;;;;;;;;;;;;;;;;          ",
"          ;;;;;;;;;;;;;;;;;;;;;;;;;;;;;;;;;;;;;;;;;;;;          ",
"          ;;;;;;;;;;;;;;;;;;;;;;;;;;;;;;;;;;;;;;;;;;;;          ",
"          ;;;;;;;;;;;;;;;;;;;;;;;;;;;;;;;;;;;;;;;;;;;;          ",
"          ;;;;;;;;;;;;;;;;;;;;;;;;;;;;;;;;;;;;;;;;;;;;          ",
"          ;;;;;;;;;;;;;;;;;;;;;;;;;;;;;;;;;;;;;;;;;;;;          ",
"          ;;;;;;;;;;;;;;;;;;;;;;;;;;;;;;;;;;;;;;;;;;;;          ",
"          ;;;;;;;;;;;;;;;;;;;;;;;;;;;;;;;;;;;;;;;;;;;;          ",
"          ;;;;;;;;;;;;;;;;;;;;;;;;;;;;;;;;;;;;;;;;;;;;          ",
"          ;;;;;;;;;;;;;;;;;;;;;;;;;;;;;;;;;;;;;;;;;;;;          ",
"          ;;;;;;;;;;;;;;;;;;;;;;;;;;;;;;;;;;;;;;;;;;;;          ",
"          ;;;;;;;;;;;;;;;;;;;;;;;;;;;;;;;;;;;;;;;;;;;;          ",
"          ;;;;;;;;;;;;;;;;;;;;;;;;;;;;;;;;;;;;;;;;;;;;          ",
"          ;;;;;;;;;;;;;;;;;;;;;;;;;;;;;;;;;;;;;;;;;;;;          ",
"                                                                ",
"                                                                ",
"                                                                ",
"                                                                ",
"                                                                ",
"                                                                ",
"                                                                ",
"                                                                ",
};
